<svg id="Layer_1" data-name="Layer 1" xmlns="http://www.w3.org/2000/svg" viewBox="0 0 400.5 195.8">
  <defs>
    <style>
      .cls-1 {
        fill: #fbf6eb;
      }
    </style>
  </defs>
  <g id="_fbf6ebff" data-name="#fbf6ebff">
    <path class="cls-1" d="M200.7,0A248.93,248.93,0,0,0,238,36.7a348.36,348.36,0,0,0,33.2,24.7c30.3,20.5,62.7,37.7,95.7,53.4,11,5.5,22.5,9.9,33.6,15.1-7.9,3.1-16.7,1.2-24.6-1.1a178.46,178.46,0,0,1-23.3-9.1c-2,16.3-3.6,32.7-5.8,48.9-.3-16.7-.2-33.5-.4-50.2C308.2,105.6,273,84.9,241,60.7a417.85,417.85,0,0,1-40.6-34.5,424.1,424.1,0,0,1-41.7,35.2,390.84,390.84,0,0,1-81,47.9c-7.6,3.4-15.5,6.1-23.3,9-.2,16.7-.2,33.5-.5,50.2-2.2-16.3-3.8-32.6-5.8-48.9a160.51,160.51,0,0,1-17.3,7c-7.8,2.9-16,5.3-24.4,4.8A21,21,0,0,1,0,129.7c15.9-6.9,32-13.5,47.4-21.6,10.3-5,20.3-10.4,30.5-15.6,29.9-16.6,59.3-34.4,85.5-56.4A231.77,231.77,0,0,0,200.7,0Z"/>
    <path class="cls-1" d="M195.3,41.8c1.3-2,3.6-4.1,6.1-2.8a11.61,11.61,0,0,1,4.6,6.6,32.52,32.52,0,0,1-2.6,23.3c-.8,1.6-1.8,3.2-1.8,5-.2,6.1,0,12.2-.2,18.3,5.3,4.3,10.7,8.6,16.1,12.9a7.48,7.48,0,0,1,2.4,8.2,7.92,7.92,0,0,1-3.4,1.4,12.49,12.49,0,0,1-3-2.6c-3.9-4.5-7.9-8.9-11.8-13.3.4,6.1,1,12.2,1.3,18.4.2,2.6-1.7,4.5-3.3,6.2-1.3-1.9-2.8-3.9-2.6-6.3.3-7.3.8-14.6,1.3-21.9-2.6-2.6-5.2-5-7.9-7.5-2.3.4-4.8,1.6-7.1.7a40.21,40.21,0,0,1-4.9-5.2c-3.8-4.6-8-8.9-11.6-13.7a5.6,5.6,0,0,1,4.3,2.1c3.3,3.5,6.1,7.4,9.9,10.4-3.3-5.8-8.6-10.1-12.4-15.6a8.71,8.71,0,0,1,4.4,2.4c3.2,3,6.1,6.3,9.6,8.9-2.7-5.6-8.5-8.6-12.3-13.4.7.1,2.1.4,2.8.5,4,2.5,7.2,6.1,11.2,8.6a9.31,9.31,0,0,0-2.6-3.3c-3.4-2.8-6.8-5.5-10.1-8.3h3.9c4.4,3.7,9.1,7.3,13.4,11.1,2.9,2.6,3.4,6.6,3.5,10.2,1.8,2.1,3.7,4.1,5.7,6.1-.2-5.6.2-11.3-.4-16.9-1.4-3.4-3.3-6.7-4.2-10.3C191.5,55.5,191.4,47.8,195.3,41.8Z"/>
    <path class="cls-1" d="M99.3,131.6a12.55,12.55,0,0,0,10.7.7c-1.1,6.9,1,13.7,1.4,20.6.2-6.8,2.2-13.7,1-20.5a17.26,17.26,0,0,0,11,0c-1.2,6.8.7,13.6,1,20.4.5-6.8,2.5-13.6,1.4-20.4a12.13,12.13,0,0,0,10.5-.8c-3.4,4.1-3.4,9.7-4.6,14.7-.9,5.2-2.6,10.4-2.3,15.8a16.18,16.18,0,0,0-10.2.1c.9-6.8-1-13.6-1.5-20.4-.5,6.8-2.4,13.6-1.5,20.5a15.8,15.8,0,0,0-10.3-.1c.5-5.1-1.3-10.1-2.1-15.1C102.7,141.7,102.7,135.9,99.3,131.6Z"/>
    <path class="cls-1" d="M147.3,132.2a25.9,25.9,0,0,0,6.2,1c4.8,0,9.6.4,14.2-1a10,10,0,0,0,.2,8.3c-3.8-1.5-7.9-1.1-11.9-1.1v4.5c3.7,0,7.5.3,11-1.1a9,9,0,0,0,0,8c-3.5-1.4-7.4-1.1-11.1-1.1V155c4,0,8,.4,11.8-1.1a10.42,10.42,0,0,0-.1,8.3c-4.6-1.5-9.5-1-14.2-1a19.54,19.54,0,0,0-6.3,1.2c1.8-4.9.9-10.1,1.1-15.2C148.2,142.1,149,137,147.3,132.2Z"/>
    <path class="cls-1" d="M181.2,132.2a15.17,15.17,0,0,0,10.5,0c-1.6,4.8-.9,9.9-1,14.9.1,5-.5,10.1.9,15a14.12,14.12,0,0,0-10.5.2c1.8-4.9.9-10.1,1.1-15.2C182.1,142.1,182.8,137,181.2,132.2Z"/>
    <path class="cls-1" d="M205.8,132.2a22,22,0,0,0,6.8,1.1c4.5,0,9,.3,13.3-1a9.65,9.65,0,0,0,.2,8.3c-3.7-1.5-7.7-1.2-11.5-1.1v5.2c3.6,0,7.3.3,10.7-1.1a9.56,9.56,0,0,0,0,8.1c-3.4-1.4-7.1-1.2-10.7-1.1-.1,3.9-.2,7.9.9,11.6a13,13,0,0,0-9.7.2c1.7-4.9.9-10.1,1-15.2C206.7,142.1,207.5,137,205.8,132.2Z"/>
    <path class="cls-1" d="M238.5,132.2a13.79,13.79,0,0,0,9.8-.1c-1.6,4.8-.9,10-1,15,.1,2.5-.4,5.2.9,7.5,1.7,1,4.4,1.2,5.5-.7a34,34,0,0,0,.4-7.8c-.2-4.7.6-9.5-1.1-14a13,13,0,0,0,9.7.1c-2,6.1-.7,12.6-1.1,19,0,3.1-.9,6.5-3.6,8.3-3.5,2.4-8.1,2.4-12.1,1.4a8.46,8.46,0,0,1-5.9-6.1C238.5,147.4,240.7,139.6,238.5,132.2Z"/>
    <path class="cls-1" d="M275.8,132.1a13.52,13.52,0,0,0,9.7.1c-1.3,4.1-1,8.5-1,12.8,2.2-4,4.5-7.9,6.3-12.1a21,21,0,0,0,12.1-1.4c-5.2,3.7-7.6,9.9-11.1,15,3.5,5.7,6,12.3,11.6,16.4-3.9-1.5-8.1-2.4-12.3-1.3-1.6-4.7-4.3-8.9-6.5-13.2,0,4.6-.5,9.3.9,13.8a12.55,12.55,0,0,0-9.7.1c1.7-4.9.9-10.1,1-15.2C276.7,142.1,277.5,137,275.8,132.1Z"/>
    <path class="cls-1" d="M72.7,146.2a29.24,29.24,0,0,0,15.8,0,10.52,10.52,0,0,0,0,7.8,28.3,28.3,0,0,0-15.8,0A10.51,10.51,0,0,0,72.7,146.2Z"/>
    <path class="cls-1" d="M312.9,146.1a28.31,28.31,0,0,0,15.8.2,9.81,9.81,0,0,0,.1,7.7,27.76,27.76,0,0,0-15.9.1A10.55,10.55,0,0,0,312.9,146.1Z"/>
    <path class="cls-1" d="M40.9,177.6c2.5-.4,4.6,1.6,5.2,3.9,1.2,3.9,1,8.5-1.4,11.9-1.6,2.4-5.6,2-7.1-.3-1.8-2.7-2-6.2-1.6-9.3.4-2.8,2-5.9,4.9-6.2m-1,1.6c-2.8,1.9-2.9,5.9-2.6,8.9.2,2.3,1.4,5.5,4.1,5.5,2.2.2,3.3-2.1,3.7-3.9.6-2.9.8-6-.4-8.7C43.9,179.3,41.7,178.1,39.9,179.2Z"/>
    <path class="cls-1" d="M48.6,177.8c2.6-.3,5.4-.9,7.8.4a4.88,4.88,0,0,1,2.3,5.8c-.4,2.2-2.4,3.4-3.9,4.8,1.4,2,2.8,3.9,4.2,5.9-2.8-1.1-4.2-3.8-5.5-6.4H49.9c0,2.3.1,4.7-.8,6.9-.7-5.7-.3-11.6-.5-17.4m1,.9c.1,2.9.2,5.7.2,8.6a25.6,25.6,0,0,0,5.5-.5c2.8-1.2,3.4-5.6.9-7.4C54.3,178.1,51.8,178.7,49.6,178.7Z"/>
    <path class="cls-1" d="M92.8,191.2c.4-4.9-.4-10.2,1.7-14.8,0,6.2-.4,12.5-.8,18.8-3.1-4.8-5.2-10.2-7.7-15.3-.1,5.2.8,10.6-.4,15.8-1-6.1-.6-12.3-.7-18.4C88.8,181,90,186.6,92.8,191.2Z"/>
    <path class="cls-1" d="M96,178.6c1.4-1.6,3.7-1,5.6-1.1,2.1,0,4.4-.1,6.2,1.1-1.8.2-3.6.3-5.5.4-.1,5.4.2,10.9-.3,16.3-1.1-1.9-.9-4.1-.9-6.2V179C99.4,178.9,97.7,178.8,96,178.6Z"/>
    <path class="cls-1" d="M191.8,191.2c.4-4.9-.4-10.2,1.7-14.8,0,6.3-.4,12.5-.8,18.8-3.1-4.8-5.2-10.2-7.7-15.3-.2,5.2,1,10.6-.5,15.6-.8-6.1-.5-12.2-.6-18.3C187.8,181,189,186.6,191.8,191.2Z"/>
    <path class="cls-1" d="M208.1,183.1a4.61,4.61,0,0,1,5.8-5.4c2.5.4,3.5,2.8,4.1,4.9-1.8-1.6-3.4-4.6-6.3-3.8-2.8.3-3.5,4.9-.8,5.9,2.5,1.5,6.8,2.5,6.1,6.3-.2,3.7-5.3,4.8-7.8,2.6-1.6-1.2-1.5-3.4-1.8-5.2,1.4,1.9,2.2,5.3,5.1,5.1a3,3,0,0,0,3.1-4.3C213.9,186.3,209.1,186.7,208.1,183.1Z"/>
    <path class="cls-1" d="M246.6,177.8c2.6-.3,5.4-.9,7.8.4a4.83,4.83,0,0,1,2.3,5.8c-.5,2.2-2.4,3.4-3.9,4.8,1.4,2,2.8,3.9,4.2,5.9-2.9-1.1-4.2-3.8-5.5-6.4h-3.6c0,2.3.1,4.7-.8,6.9-.7-5.7-.3-11.6-.5-17.4m1,.9c.1,2.9.2,5.7.2,8.6a25.6,25.6,0,0,0,5.5-.5c2.8-1.2,3.4-5.6.9-7.4C252.3,178.1,249.7,178.7,247.6,178.7Z"/>
    <path class="cls-1" d="M272.9,178.2c1.8-1.2,4.3-.6,6,.6,1,1,1.4,2.5,2,3.8-1.8-1.5-3.4-4.2-6.2-3.8-2.3.4-3.2,3.3-2.1,5.2,1.8,1.4,4,2.1,5.9,3.4s1.8,4.4.4,6.1a5.3,5.3,0,0,1-7.8-.8c-.8-1.2-.6-2.7-.8-4.1,1.4,2,2.2,5.5,5.3,5a3,3,0,0,0,2.5-4.8c-1.8-1.8-4.4-2.2-6.2-3.8A4.63,4.63,0,0,1,272.9,178.2Z"/>
    <path class="cls-1" d="M281.5,178.5a7,7,0,0,1,4-1c2.6.1,5.5-.5,7.9,1.1-1.8.2-3.6.3-5.4.4-.4,5.5.7,11.1-.8,16.5-.8-5.5-.3-11-.4-16.5C285.1,178.9,283.3,178.7,281.5,178.5Z"/>
    <path class="cls-1" d="M318.8,177.8c2.8-.3,5.8-1,8.3.7a5.13,5.13,0,0,1,1.8,5.9c-.6,2-2.4,3.2-3.9,4.5a55.83,55.83,0,0,1,3.9,6c-2.6-1.4-4-3.9-5.2-6.5h-3.6a29.21,29.21,0,0,1-.6,7.2c-1.1-5.9-.4-11.9-.7-17.8m1.1,1c.1,2.9.1,5.7.2,8.6a47.25,47.25,0,0,0,5.3-.4c3.1-1.1,3.6-5.9.9-7.6C324.3,178.1,322,178.7,319.9,178.8Z"/>
    <path class="cls-1" d="M352.5,176.4c.6,6.2-.3,12.5-.6,18.8-3-4.9-5.1-10.1-7.6-15.2,0,5.1.5,10.3-.2,15.4-1.1-2.3-.8-4.9-.8-7.3.1-3.7-.4-7.4.2-11.1,3.4,4.2,5.1,9.5,7.7,14.2C351.3,186.3,351,181.2,352.5,176.4Z"/>
    <path class="cls-1" d="M353.9,178.4c3.8-1.7,8.4-1.1,12.4-.1a57.33,57.33,0,0,1-5.8.7c-.1,5.5.3,11-.4,16.4-1.5-5.4-.5-11-.8-16.5A32.87,32.87,0,0,1,353.9,178.4Z"/>
    <path class="cls-1" d="M60.9,178.3c2.8-.8,6.1-1.3,8.7.2-1,.1-2.9.4-3.9.5,0,4.8,0,9.5-.1,14.2.9.2,2.8.7,3.7,1a17.46,17.46,0,0,1-8.5,0c.9-.2,2.8-.7,3.7-1V179C63.7,178.9,61.8,178.5,60.9,178.3Z"/>
    <path class="cls-1" d="M72.2,177.7c3.7.4,8-1.2,11.2,1-3.4.3-6.8.2-10.1.2,0,2.2.1,4.4.1,6.6,3,0,6-.1,9,.2-2.6,1.8-6,.8-9,1,0,2.2,0,4.4-.1,6.6a75.48,75.48,0,0,1,9.5.4c-3.3,1.6-7,.7-10.5.8C72.3,188.9,72.3,183.3,72.2,177.7Z"/>
    <path class="cls-1" d="M108.5,195.4c1-6.3,3.2-12.3,5-18.4a117.8,117.8,0,0,1,5.1,18.5,14.75,14.75,0,0,1-2.7-6.3h-4.8a15.49,15.49,0,0,1-2.6,6.2m5.1-14.6c-.7,2.4-1.4,4.9-2,7.3h4C115,185.6,114.4,183.1,113.6,180.8Z"/>
    <path class="cls-1" d="M121.4,184.1c0-2.4-.4-4.9.7-7.1.8,5.4.4,10.9.3,16.4,3.3-.1,6.7-.3,9.9.8-3.6.9-7.4.5-11.1.5C121.3,191.1,121.5,187.6,121.4,184.1Z"/>
    <path class="cls-1" d="M148.2,180.7c1.2-2.5,4.6-4,7.1-2.4,1.6.9,2.1,2.8,2.8,4.3-1.7-1.3-2.9-4-5.4-3.8s-4.1,2.8-4.5,5.1a12.41,12.41,0,0,0,.9,7.6c1,1.9,3.4,2.3,5.3,1.6,1.6-1.3,2.3-3.3,3.4-4.9-.4,1.8-.5,3.9-2,5.2-2.3,2.1-6.7,1.3-7.8-1.7A13.2,13.2,0,0,1,148.2,180.7Z"/>
    <path class="cls-1" d="M159.3,185.1c0-2.7-.5-5.5.6-8.1a63.46,63.46,0,0,1,.5,8.7h7.8c.1-3-.1-6.1,1-8.9.2,6.2.5,12.7-.9,18.8a50.59,50.59,0,0,1-.2-8.7h-7.6c.1,3,.4,6-.6,8.9C159.4,192.2,159.5,188.6,159.3,185.1Z"/>
    <path class="cls-1" d="M171.9,178.3c2.8-.8,6-1.3,8.7.2-1,.1-2.9.4-3.9.5,0,4.8,0,9.5-.1,14.2.9.2,2.8.7,3.7,1a17.46,17.46,0,0,1-8.5,0c.9-.2,2.8-.7,3.7-1V179C174.7,178.9,172.8,178.5,171.9,178.3Z"/>
    <path class="cls-1" d="M195.5,177.7c3.7.4,7.9-1.1,11.2,1-3.4.3-6.8.2-10.2.2,0,2.2.1,4.4.1,6.6,3,0,6.1-.1,9.1.2-2.7,1.7-6.1.8-9.1,1,0,2.2,0,4.4-.1,6.6h8.7v1.2h-9.8C195.6,188.9,195.6,183.3,195.5,177.7Z"/>
    <path class="cls-1" d="M219.5,177.7c3.7.4,7.9-1.1,11.2,1-3.4.3-6.8.2-10.2.2,0,2.2.1,4.4.1,6.6a69.2,69.2,0,0,1,9.1.3c-2.8,1.6-6.1.8-9.1,1,0,2.2,0,4.4-.1,6.6h8.7v1.2h-9.8C219.6,188.9,219.6,183.3,219.5,177.7Z"/>
    <path class="cls-1" d="M258.2,177.7h10.6l.1,1.2h-9.6c0,2.2,0,4.4.1,6.6,3,0,6-.1,9,.2-2.6,1.8-6,.8-9,1,0,2.2,0,4.4-.1,6.6a75.48,75.48,0,0,1,9.5.4c-3.3,1.6-7,.7-10.5.8C258.3,188.9,258.3,183.3,258.2,177.7Z"/>
    <path class="cls-1" d="M294.5,195.4c1-6.3,3.2-12.3,5-18.4a117.8,117.8,0,0,1,5.1,18.5,14.62,14.62,0,0,1-2.7-6.4c-1.6,0-3.2,0-4.7.1a17.23,17.23,0,0,1-2.7,6.2m5.1-14.7c-.8,2.4-1.4,4.9-2,7.4h4C301,185.6,300.4,183.1,299.6,180.7Z"/>
    <path class="cls-1" d="M307.2,185.1c0-2.8-.4-5.7.9-8.2.8,4.9-.4,10,1.1,14.7.6,2.4,4.3,2.4,5.2.2,2-4.7.1-10,1.9-14.7a51.49,51.49,0,0,1,.1,11.1c-.2,2-.5,4.3-2.2,5.7a3.87,3.87,0,0,1-5.9-1.4C307.3,190.1,307.3,187.6,307.2,185.1Z"/>
    <path class="cls-1" d="M335.7,177a87.61,87.61,0,0,1,5,18.7,22.69,22.69,0,0,1-2.6-6.5h-4.7a13.49,13.49,0,0,1-2.7,6.1c1.2-6.3,3.3-12.2,5-18.3m-1.9,11.1h4c-.6-2.6-1.3-5.3-2-7.9C335.2,182.7,334.5,185.4,333.8,188.1Z"/>
  </g>
</svg>
