<svg xmlns="http://www.w3.org/2000/svg" xmlns:xlink="http://www.w3.org/1999/xlink" version="1.1" id="Layer_1" x="0px" y="0px" style="enable-background:new 0 0 500 500;" xml:space="preserve" viewBox="49.4 150.9 400.5 195.8">
<style type="text/css">
	.st0{fill:#D41540;}
</style>
<g id="_x23_fbf6ebff">
	<path class="st0" d="M250.1,150.9c11,13.6,23.7,25.7,37.3,36.7c10.6,8.8,21.6,17.2,33.2,24.7c30.3,20.5,62.7,37.7,95.7,53.4   c11,5.5,22.5,9.9,33.6,15.1c-7.9,3.1-16.7,1.2-24.6-1.1c-7.9-2.5-15.8-5.5-23.3-9.1c-2,16.3-3.6,32.7-5.8,48.9   c-0.3-16.7-0.2-33.5-0.4-50.2c-38.2-12.8-73.4-33.5-105.4-57.7c-14.3-10.6-27.8-22.2-40.6-34.5c-13.2,12.6-27,24.4-41.7,35.2   c-25,19-52.1,35.4-81,47.9c-7.6,3.4-15.5,6.1-23.3,9c-0.2,16.7-0.2,33.5-0.5,50.2c-2.2-16.3-3.8-32.6-5.8-48.9   c-5.7,2.6-11.4,5.1-17.3,7c-7.8,2.9-16,5.3-24.4,4.8c-2.2-0.1-4.3-0.9-6.4-1.7c15.9-6.9,32-13.5,47.4-21.6   c10.3-5,20.3-10.4,30.5-15.6c29.9-16.6,59.3-34.4,85.5-56.4C226.6,176.3,239.1,164.3,250.1,150.9z"/>
	<path class="st0" d="M244.7,192.7c1.3-2,3.6-4.1,6.1-2.8c2.3,1.4,3.8,4,4.6,6.6c2,7.7,1.2,16.2-2.6,23.3c-0.8,1.6-1.8,3.2-1.8,5   c-0.2,6.1,0,12.2-0.2,18.3c5.3,4.3,10.7,8.6,16.1,12.9c2.5,1.8,3.3,5.3,2.4,8.2c-1,0.7-2.1,1.2-3.4,1.4c-1.2-0.6-2.1-1.7-3-2.6   c-3.9-4.5-7.9-8.9-11.8-13.3c0.4,6.1,1,12.2,1.3,18.4c0.2,2.6-1.7,4.5-3.3,6.2c-1.3-1.9-2.8-3.9-2.6-6.3c0.3-7.3,0.8-14.6,1.3-21.9   c-2.6-2.6-5.2-5-7.9-7.5c-2.3,0.4-4.8,1.6-7.1,0.7c-1.9-1.5-3.3-3.4-4.9-5.2c-3.8-4.6-8-8.9-11.6-13.7c1.6,0.1,3.3,0.7,4.3,2.1   c3.3,3.5,6.1,7.4,9.9,10.4c-3.3-5.8-8.6-10.1-12.4-15.6c1.6,0.4,3.2,1.1,4.4,2.4c3.2,3,6.1,6.3,9.6,8.9c-2.7-5.6-8.5-8.6-12.3-13.4   c0.7,0.1,2.1,0.4,2.8,0.5c4,2.5,7.2,6.1,11.2,8.6c-0.7-1.2-1.4-2.5-2.6-3.3c-3.4-2.8-6.8-5.5-10.1-8.3c1,0,3,0,3.9,0   c4.4,3.7,9.1,7.3,13.4,11.1c2.9,2.6,3.4,6.6,3.5,10.2c1.8,2.1,3.7,4.1,5.7,6.1c-0.2-5.6,0.2-11.3-0.4-16.9   c-1.4-3.4-3.3-6.7-4.2-10.3C240.9,206.4,240.8,198.7,244.7,192.7z"/>
	<path class="st0" d="M148.7,282.5c3.3,1.7,7.2,2.2,10.7,0.7c-1.1,6.9,1,13.7,1.4,20.6c0.2-6.8,2.2-13.7,1-20.5   c3.6,1.2,7.4,1.2,11,0c-1.2,6.8,0.7,13.6,1,20.4c0.5-6.8,2.5-13.6,1.4-20.4c3.5,1.4,7.2,1,10.5-0.8c-3.4,4.1-3.4,9.7-4.6,14.7   c-0.9,5.2-2.6,10.4-2.3,15.8c-3.3-1.1-6.9-1-10.2,0.1c0.9-6.8-1-13.6-1.5-20.4c-0.5,6.8-2.4,13.6-1.5,20.5   c-3.3-1.2-6.9-1.2-10.3-0.1c0.5-5.1-1.3-10.1-2.1-15.1C152.1,292.6,152.1,286.8,148.7,282.5z"/>
	<path class="st0" d="M196.7,283.1c2,0.5,4.1,1,6.2,1c4.8,0,9.6,0.4,14.2-1c-1.1,2.7-1.1,5.6,0.2,8.3c-3.8-1.5-7.9-1.1-11.9-1.1   c0,1.5,0,3,0,4.5c3.7,0,7.5,0.3,11-1.1c-1.2,2.6-1.3,5.4,0,8c-3.5-1.4-7.4-1.1-11.1-1.1c0,1.8,0,3.5,0,5.3c4,0,8,0.4,11.8-1.1   c-1.2,2.7-1.2,5.6-0.1,8.3c-4.6-1.5-9.5-1-14.2-1c-2.2,0-4.2,0.5-6.3,1.2c1.8-4.9,0.9-10.1,1.1-15.2   C197.6,293,198.4,287.9,196.7,283.1z"/>
	<path class="st0" d="M230.6,283.1c3.4,1.3,7.1,1.2,10.5,0c-1.6,4.8-0.9,9.9-1,14.9c0.1,5-0.5,10.1,0.9,15   c-3.4-1.2-7.2-1.3-10.5,0.2c1.8-4.9,0.9-10.1,1.1-15.2C231.5,293,232.2,287.9,230.6,283.1z"/>
	<path class="st0" d="M255.2,283.1c2.2,0.7,4.4,1.1,6.8,1.1c4.5,0,9,0.3,13.3-1c-1.1,2.7-1.2,5.7,0.2,8.3c-3.7-1.5-7.7-1.2-11.5-1.1   c0,1.7,0,3.5,0,5.2c3.6,0,7.3,0.3,10.7-1.1c-1.2,2.6-1.2,5.5,0,8.1c-3.4-1.4-7.1-1.2-10.7-1.1c-0.1,3.9-0.2,7.9,0.9,11.6   c-3.2-1.1-6.6-1.2-9.7,0.2c1.7-4.9,0.9-10.1,1-15.2C256.1,293,256.9,287.9,255.2,283.1z"/>
	<path class="st0" d="M287.9,283.1c3.2,1.1,6.7,1.2,9.8-0.1c-1.6,4.8-0.9,10-1,15c0.1,2.5-0.4,5.2,0.9,7.5c1.7,1,4.4,1.2,5.5-0.7   c0.6-2.6,0.4-5.2,0.4-7.8c-0.2-4.7,0.6-9.5-1.1-14c3.1,1.3,6.5,1.3,9.7,0.1c-2,6.1-0.7,12.6-1.1,19c0,3.1-0.9,6.5-3.6,8.3   c-3.5,2.4-8.1,2.4-12.1,1.4c-2.9-0.8-5.2-3.2-5.9-6.1C287.9,298.3,290.1,290.5,287.9,283.1z"/>
	<path class="st0" d="M325.2,283c3.1,1.3,6.6,1.2,9.7,0.1c-1.3,4.1-1,8.5-1,12.8c2.2-4,4.5-7.9,6.3-12.1c4.1,0.8,8.2,0.2,12.1-1.4   c-5.2,3.7-7.6,9.9-11.1,15c3.5,5.7,6,12.3,11.6,16.4c-3.9-1.5-8.1-2.4-12.3-1.3c-1.6-4.7-4.3-8.9-6.5-13.2c0,4.6-0.5,9.3,0.9,13.8   c-3.2-1.2-6.6-1.3-9.7,0.1c1.7-4.9,0.9-10.1,1-15.2C326.1,293,326.9,287.9,325.2,283z"/>
	<path class="st0" d="M122.1,297.1c5.1,1.5,10.7,1.4,15.8,0c-1,2.5-1,5.3,0,7.8c-5.1-1.5-10.7-1.5-15.8,0   C123.1,302.3,123.1,299.6,122.1,297.1z"/>
	<path class="st0" d="M362.3,297c5.1,1.7,10.7,1.5,15.8,0.2c-1,2.5-1,5.2,0.1,7.7c-5.2-1.5-10.8-1.5-15.9,0.1   C363.4,302.3,363.3,299.5,362.3,297z"/>
	<path class="st0" d="M90.3,328.5c2.5-0.4,4.6,1.6,5.2,3.9c1.2,3.9,1,8.5-1.4,11.9c-1.6,2.4-5.6,2-7.1-0.3c-1.8-2.7-2-6.2-1.6-9.3   C85.8,331.9,87.4,328.8,90.3,328.5 M89.3,330.1c-2.8,1.9-2.9,5.9-2.6,8.9c0.2,2.3,1.4,5.5,4.1,5.5c2.2,0.2,3.3-2.1,3.7-3.9   c0.6-2.9,0.8-6-0.4-8.7C93.3,330.2,91.1,329,89.3,330.1z"/>
	<path class="st0" d="M98,328.7c2.6-0.3,5.4-0.9,7.8,0.4c2.1,1,3,3.7,2.3,5.8c-0.4,2.2-2.4,3.4-3.9,4.8c1.4,2,2.8,3.9,4.2,5.9   c-2.8-1.1-4.2-3.8-5.5-6.4c-1.2,0-2.4,0-3.6,0c0,2.3,0.1,4.7-0.8,6.9C97.8,340.4,98.2,334.5,98,328.7 M99,329.6   c0.1,2.9,0.2,5.7,0.2,8.6c1.8-0.1,3.7,0,5.5-0.5c2.8-1.2,3.4-5.6,0.9-7.4C103.7,329,101.2,329.6,99,329.6z"/>
	<path class="st0" d="M142.2,342.1c0.4-4.9-0.4-10.2,1.7-14.8c0,6.2-0.4,12.5-0.8,18.8c-3.1-4.8-5.2-10.2-7.7-15.3   c-0.1,5.2,0.8,10.6-0.4,15.8c-1-6.1-0.6-12.3-0.7-18.4C138.2,331.9,139.4,337.5,142.2,342.1z"/>
	<path class="st0" d="M145.4,329.5c1.4-1.6,3.7-1,5.6-1.1c2.1,0,4.4-0.1,6.2,1.1c-1.8,0.2-3.6,0.3-5.5,0.4   c-0.1,5.4,0.2,10.9-0.3,16.3c-1.1-1.9-0.9-4.1-0.9-6.2c0-3.4,0-6.8,0-10.1C148.8,329.8,147.1,329.7,145.4,329.5z"/>
	<path class="st0" d="M241.2,342.1c0.4-4.9-0.4-10.2,1.7-14.8c0,6.3-0.4,12.5-0.8,18.8c-3.1-4.8-5.2-10.2-7.7-15.3   c-0.2,5.2,1,10.6-0.5,15.6c-0.8-6.1-0.5-12.2-0.6-18.3C237.2,331.9,238.4,337.5,241.2,342.1z"/>
	<path class="st0" d="M257.5,334c-0.9-3.3,2.6-6.5,5.8-5.4c2.5,0.4,3.5,2.8,4.1,4.9c-1.8-1.6-3.4-4.6-6.3-3.8   c-2.8,0.3-3.5,4.9-0.8,5.9c2.5,1.5,6.8,2.5,6.1,6.3c-0.2,3.7-5.3,4.8-7.8,2.6c-1.6-1.2-1.5-3.4-1.8-5.2c1.4,1.9,2.2,5.3,5.1,5.1   c2.4,0.2,4.1-2.1,3.1-4.3C263.3,337.2,258.5,337.6,257.5,334z"/>
	<path class="st0" d="M296,328.7c2.6-0.3,5.4-0.9,7.8,0.4c2.1,1,3,3.6,2.3,5.8c-0.5,2.2-2.4,3.4-3.9,4.8c1.4,2,2.8,3.9,4.2,5.9   c-2.9-1.1-4.2-3.8-5.5-6.4c-1.2,0-2.4,0-3.6,0c0,2.3,0.1,4.7-0.8,6.9C295.8,340.4,296.2,334.5,296,328.7 M297,329.6   c0.1,2.9,0.2,5.7,0.2,8.6c1.8-0.1,3.7,0,5.5-0.5c2.8-1.2,3.4-5.6,0.9-7.4C301.7,329,299.1,329.6,297,329.6z"/>
	<path class="st0" d="M322.3,329.1c1.8-1.2,4.3-0.6,6,0.6c1,1,1.4,2.5,2,3.8c-1.8-1.5-3.4-4.2-6.2-3.8c-2.3,0.4-3.2,3.3-2.1,5.2   c1.8,1.4,4,2.1,5.9,3.4c1.9,1.4,1.8,4.4,0.4,6.1c-2.1,2.1-6.1,1.7-7.8-0.8c-0.8-1.2-0.6-2.7-0.8-4.1c1.4,2,2.2,5.5,5.3,5   c2.6,0.2,4-2.8,2.5-4.8c-1.8-1.8-4.4-2.2-6.2-3.8C319.5,333.8,320.1,330.4,322.3,329.1z"/>
	<path class="st0" d="M330.9,329.4c1.2-0.7,2.6-1.1,4-1c2.6,0.1,5.5-0.5,7.9,1.1c-1.8,0.2-3.6,0.3-5.4,0.4   c-0.4,5.5,0.7,11.1-0.8,16.5c-0.8-5.5-0.3-11-0.4-16.5C334.5,329.8,332.7,329.6,330.9,329.4z"/>
	<path class="st0" d="M368.2,328.7c2.8-0.3,5.8-1,8.3,0.7c1.9,1.2,2.5,3.8,1.8,5.9c-0.6,2-2.4,3.2-3.9,4.5c1.4,2,2.8,3.9,3.9,6   c-2.6-1.4-4-3.9-5.2-6.5c-1.2,0-2.4,0-3.6,0c0,2.4,0,4.8-0.6,7.2C367.8,340.6,368.5,334.6,368.2,328.7 M369.3,329.7   c0.1,2.9,0.1,5.7,0.2,8.6c1.8-0.1,3.5-0.1,5.3-0.4c3.1-1.1,3.6-5.9,0.9-7.6C373.7,329,371.4,329.6,369.3,329.7z"/>
	<path class="st0" d="M401.9,327.3c0.6,6.2-0.3,12.5-0.6,18.8c-3-4.9-5.1-10.1-7.6-15.2c0,5.1,0.5,10.3-0.2,15.4   c-1.1-2.3-0.8-4.9-0.8-7.3c0.1-3.7-0.4-7.4,0.2-11.1c3.4,4.2,5.1,9.5,7.7,14.2C400.7,337.2,400.4,332.1,401.9,327.3z"/>
	<path class="st0" d="M403.3,329.3c3.8-1.7,8.4-1.1,12.4-0.1c-1.9,0.4-3.9,0.5-5.8,0.7c-0.1,5.5,0.3,11-0.4,16.4   c-1.5-5.4-0.5-11-0.8-16.5C406.9,329.8,405.1,329.6,403.3,329.3z"/>
	<path class="st0" d="M110.3,329.2c2.8-0.8,6.1-1.3,8.7,0.2c-1,0.1-2.9,0.4-3.9,0.5c0,4.8,0,9.5-0.1,14.2c0.9,0.2,2.8,0.7,3.7,1   c-2.8,0.7-5.7,0.7-8.5,0c0.9-0.2,2.8-0.7,3.7-1c0-4.7,0-9.5,0-14.2C113.1,329.8,111.2,329.4,110.3,329.2z"/>
	<path class="st0" d="M121.6,328.6c3.7,0.4,8-1.2,11.2,1c-3.4,0.3-6.8,0.2-10.1,0.2c0,2.2,0.1,4.4,0.1,6.6c3,0,6-0.1,9,0.2   c-2.6,1.8-6,0.8-9,1c0,2.2,0,4.4-0.1,6.6c3.2,0,6.3,0,9.5,0.4c-3.3,1.6-7,0.7-10.5,0.8C121.7,339.8,121.7,334.2,121.6,328.6z"/>
	<path class="st0" d="M157.9,346.3c1-6.3,3.2-12.3,5-18.4c2.1,6,4,12.2,5.1,18.5c-1.5-1.8-2.2-4.1-2.7-6.3c-1.6,0-3.2,0-4.8,0   C160,342.3,159.3,344.5,157.9,346.3 M163,331.7c-0.7,2.4-1.4,4.9-2,7.3c1.3,0,2.7,0,4,0C164.4,336.5,163.8,334,163,331.7z"/>
	<path class="st0" d="M170.8,335c0-2.4-0.4-4.9,0.7-7.1c0.8,5.4,0.4,10.9,0.3,16.4c3.3-0.1,6.7-0.3,9.9,0.8   c-3.6,0.9-7.4,0.5-11.1,0.5C170.7,342,170.9,338.5,170.8,335z"/>
	<path class="st0" d="M197.6,331.6c1.2-2.5,4.6-4,7.1-2.4c1.6,0.9,2.1,2.8,2.8,4.3c-1.7-1.3-2.9-4-5.4-3.8c-2.6,0.2-4.1,2.8-4.5,5.1   c-0.4,2.5-0.3,5.3,0.9,7.6c1,1.9,3.4,2.3,5.3,1.6c1.6-1.3,2.3-3.3,3.4-4.9c-0.4,1.8-0.5,3.9-2,5.2c-2.3,2.1-6.7,1.3-7.8-1.7   C195.9,339.1,195.9,334.9,197.6,331.6z"/>
	<path class="st0" d="M208.7,336c0-2.7-0.5-5.5,0.6-8.1c0.4,2.9,0.5,5.8,0.5,8.7c2.6,0,5.2,0,7.8,0c0.1-3-0.1-6.1,1-8.9   c0.2,6.2,0.5,12.7-0.9,18.8c-0.4-2.9-0.3-5.8-0.2-8.7c-2.5,0-5.1,0-7.6,0c0.1,3,0.4,6-0.6,8.9C208.8,343.1,208.9,339.5,208.7,336z"/>
	<path class="st0" d="M221.3,329.2c2.8-0.8,6-1.3,8.7,0.2c-1,0.1-2.9,0.4-3.9,0.5c0,4.8,0,9.5-0.1,14.2c0.9,0.2,2.8,0.7,3.7,1   c-2.8,0.7-5.7,0.7-8.5,0c0.9-0.2,2.8-0.7,3.7-1c0-4.7,0-9.4,0-14.2C224.1,329.8,222.2,329.4,221.3,329.2z"/>
	<path class="st0" d="M244.9,328.6c3.7,0.4,7.9-1.1,11.2,1c-3.4,0.3-6.8,0.2-10.2,0.2c0,2.2,0.1,4.4,0.1,6.6c3,0,6.1-0.1,9.1,0.2   c-2.7,1.7-6.1,0.8-9.1,1c0,2.2,0,4.4-0.1,6.6c2.9,0,5.8,0,8.7,0l0,1.2c-3.2,0-6.5,0-9.8,0C245,339.8,245,334.2,244.9,328.6z"/>
	<path class="st0" d="M268.9,328.6c3.7,0.4,7.9-1.1,11.2,1c-3.4,0.3-6.8,0.2-10.2,0.2c0,2.2,0.1,4.4,0.1,6.6c3,0,6.1-0.1,9.1,0.3   c-2.8,1.6-6.1,0.8-9.1,1c0,2.2,0,4.4-0.1,6.6c2.9,0,5.8,0,8.7,0l0,1.2c-3.3,0-6.5,0-9.8,0C269,339.8,269,334.2,268.9,328.6z"/>
	<path class="st0" d="M307.6,328.6c3.5,0,7,0,10.6,0l0.1,1.2c-3.2,0-6.4,0-9.6,0c0,2.2,0,4.4,0.1,6.6c3,0,6-0.1,9,0.2   c-2.6,1.8-6,0.8-9,1c0,2.2,0,4.4-0.1,6.6c3.2,0,6.3,0,9.5,0.4c-3.3,1.6-7,0.7-10.5,0.8C307.7,339.8,307.7,334.2,307.6,328.6z"/>
	<path class="st0" d="M343.9,346.3c1-6.3,3.2-12.3,5-18.4c2.1,6,4,12.2,5.1,18.5c-1.5-1.8-2.2-4.1-2.7-6.4c-1.6,0-3.2,0-4.7,0.1   C346,342.3,345.3,344.5,343.9,346.3 M349,331.6c-0.8,2.4-1.4,4.9-2,7.4c1.3,0,2.7,0,4,0C350.4,336.5,349.8,334,349,331.6z"/>
	<path class="st0" d="M356.6,336c0-2.8-0.4-5.7,0.9-8.2c0.8,4.9-0.4,10,1.1,14.7c0.6,2.4,4.3,2.4,5.2,0.2c2-4.7,0.1-10,1.9-14.7   c0.5,3.7,0.4,7.4,0.1,11.1c-0.2,2-0.5,4.3-2.2,5.7c-1.8,1.5-5,0.9-5.9-1.4C356.7,341,356.7,338.5,356.6,336z"/>
	<path class="st0" d="M385.1,327.9c2.2,6.1,4.2,12.3,5,18.7c-1.3-2-2-4.3-2.6-6.5c-1.6,0-3.1,0-4.7,0c-0.5,2.2-1.2,4.4-2.7,6.1   C381.3,339.9,383.4,334,385.1,327.9 M383.2,339c1.3,0,2.7,0,4,0c-0.6-2.6-1.3-5.3-2-7.9C384.6,333.6,383.9,336.3,383.2,339z"/>
</g>
</svg>