<?xml version="1.0" encoding="UTF-8" ?>
<!DOCTYPE svg PUBLIC "-//W3C//DTD SVG 1.1//EN" "http://www.w3.org/Graphics/SVG/1.1/DTD/svg11.dtd">
<svg width="500pt" height="500pt" viewBox="0 0 500 500" version="1.1" xmlns="http://www.w3.org/2000/svg">
<g id="#fbf6ebff">
<path fill="#fbf6eb" opacity="1.00" d=" M 250.11 150.92 C 261.13 164.50 273.85 176.62 287.46 187.58 C 298.07 196.41 309.10 204.74 320.65 212.30 C 350.93 232.81 383.32 250.01 416.31 265.70 C 427.29 271.23 438.79 275.64 449.95 280.78 C 442.02 283.90 433.23 282.00 425.37 279.64 C 417.42 277.10 409.60 274.14 402.07 270.54 C 400.05 286.84 398.49 303.20 396.27 319.48 C 396.00 302.74 396.02 286.00 395.85 269.26 C 357.64 256.46 322.46 235.80 290.44 211.55 C 276.15 201.00 262.69 189.34 249.87 177.06 C 236.71 189.61 222.89 201.51 208.21 212.24 C 183.18 231.23 156.11 247.68 127.26 260.19 C 119.64 263.56 111.75 266.27 103.96 269.22 C 103.75 285.94 103.80 302.68 103.49 319.40 C 101.33 303.14 99.71 286.81 97.73 270.52 C 92.07 273.10 86.37 275.63 80.45 277.54 C 72.64 280.42 64.42 282.83 56.02 282.32 C 53.80 282.18 51.70 281.44 49.66 280.63 C 65.58 273.73 81.66 267.13 97.05 259.07 C 107.31 254.06 117.40 248.72 127.55 243.50 C 157.42 226.91 186.83 209.10 213.09 187.13 C 226.57 176.31 239.14 164.29 250.11 150.92 Z" />
<path fill="#fbf6eb" opacity="1.00" d=" M 244.73 192.73 C 245.99 190.76 248.36 188.58 250.83 189.95 C 253.16 191.39 254.64 193.95 255.39 196.55 C 257.43 204.29 256.57 212.80 252.82 219.90 C 252.07 221.50 251.04 223.08 251.07 224.92 C 250.89 231.01 251.07 237.11 250.88 243.21 C 256.19 247.56 261.60 251.80 266.95 256.11 C 269.42 257.90 270.21 261.45 269.32 264.28 C 268.30 265.02 267.17 265.48 265.91 265.66 C 264.67 265.11 263.83 264.00 262.92 263.05 C 259.02 258.58 255.02 254.19 251.09 249.74 C 251.48 255.87 252.10 261.99 252.38 268.12 C 252.58 270.67 250.66 272.61 249.04 274.31 C 247.76 272.44 246.21 270.46 246.39 268.04 C 246.72 260.74 247.23 253.44 247.73 246.15 C 245.16 243.59 242.50 241.12 239.83 238.65 C 237.51 239.05 235.03 240.26 232.69 239.36 C 230.80 237.89 229.39 235.93 227.82 234.15 C 223.98 229.57 219.87 225.21 216.19 220.49 C 217.84 220.64 219.47 221.15 220.48 222.56 C 223.76 226.02 226.61 229.93 230.34 232.95 C 227.06 227.14 221.76 222.85 217.97 217.39 C 219.60 217.81 221.20 218.47 222.36 219.75 C 225.54 222.72 228.45 226.01 231.96 228.63 C 229.24 223.08 223.42 220.02 219.64 215.25 C 220.33 215.38 221.71 215.63 222.40 215.76 C 226.41 218.23 229.56 221.87 233.56 224.38 C 232.88 223.14 232.17 221.89 231.01 221.04 C 227.63 218.28 224.22 215.57 220.89 212.76 C 221.87 212.75 223.85 212.74 224.83 212.74 C 229.27 216.48 233.89 220.00 238.26 223.82 C 241.12 226.38 241.70 230.41 241.80 234.05 C 243.64 236.14 245.54 238.17 247.47 240.19 C 247.25 234.57 247.71 228.89 247.09 223.30 C 245.66 219.88 243.83 216.62 242.91 213.00 C 240.87 206.38 240.81 198.69 244.73 192.73 Z" />
<path fill="#fbf6eb" opacity="1.00" d=" M 148.70 282.45 C 152.02 284.16 155.85 284.64 159.35 283.17 C 158.23 290.03 160.32 296.90 160.78 303.73 C 161.01 296.89 162.99 290.01 161.74 283.19 C 165.32 284.41 169.17 284.43 172.74 283.15 C 171.53 289.92 173.40 296.76 173.75 303.54 C 174.21 296.76 176.21 289.97 175.19 283.16 C 178.65 284.60 182.43 284.17 185.70 282.40 C 182.30 286.55 182.28 292.10 181.13 297.09 C 180.28 302.32 178.58 307.48 178.82 312.84 C 175.50 311.69 171.95 311.79 168.64 312.92 C 169.56 306.09 167.68 299.28 167.17 292.48 C 166.67 299.30 164.75 306.12 165.70 312.97 C 162.36 311.75 158.76 311.72 155.40 312.86 C 155.86 307.73 154.11 302.78 153.33 297.77 C 152.12 292.58 152.15 286.81 148.70 282.45 Z" />
<path fill="#fbf6eb" opacity="1.00" d=" M 196.70 283.12 C 198.74 283.64 200.82 284.13 202.94 284.13 C 207.69 284.12 212.54 284.53 217.16 283.15 C 216.07 285.86 216.02 288.78 217.32 291.44 C 213.54 289.93 209.44 290.30 205.47 290.31 C 205.47 291.79 205.47 293.29 205.47 294.78 C 209.17 294.80 212.99 295.10 216.51 293.66 C 215.27 296.25 215.23 299.11 216.55 301.69 C 213.01 300.32 209.20 300.55 205.48 300.59 C 205.48 302.34 205.47 304.09 205.46 305.85 C 209.42 305.87 213.51 306.20 217.28 304.73 C 216.05 307.39 216.07 310.30 217.13 313.02 C 212.53 311.54 207.66 312.02 202.91 311.99 C 200.75 311.95 198.66 312.51 196.63 313.16 C 198.42 308.29 197.55 303.05 197.72 298.00 C 197.58 293.03 198.35 287.91 196.70 283.12 Z" />
<path fill="#fbf6eb" opacity="1.00" d=" M 230.58 283.10 C 234.00 284.37 237.67 284.33 241.10 283.13 C 239.52 287.94 240.21 293.04 240.09 298.00 C 240.18 302.99 239.59 308.10 241.01 312.97 C 237.57 311.80 233.85 311.69 230.49 313.21 C 232.31 308.33 231.43 303.07 231.61 298.00 C 231.46 293.03 232.24 287.90 230.58 283.10 Z" />
<path fill="#fbf6eb" opacity="1.00" d=" M 255.20 283.06 C 257.39 283.73 259.65 284.21 261.96 284.15 C 266.42 284.13 270.98 284.49 275.30 283.12 C 274.17 285.84 274.13 288.79 275.46 291.46 C 271.79 289.96 267.80 290.29 263.94 290.31 C 263.94 292.05 263.94 293.79 263.94 295.54 C 267.53 295.59 271.22 295.81 274.62 294.41 C 273.39 297.03 273.40 299.87 274.62 302.50 C 271.22 301.08 267.53 301.32 263.95 301.37 C 263.86 305.26 263.75 309.22 264.90 313.00 C 261.72 311.85 258.31 311.78 255.19 313.16 C 256.88 308.27 256.09 303.05 256.24 298.00 C 256.11 293.01 256.85 287.87 255.20 283.06 Z" />
<path fill="#fbf6eb" opacity="1.00" d=" M 287.86 283.15 C 291.08 284.27 294.51 284.34 297.68 283.05 C 296.06 287.87 296.81 293.01 296.64 298.00 C 296.75 300.49 296.26 303.20 297.52 305.49 C 299.19 306.49 301.91 306.74 303.03 304.80 C 303.63 302.24 303.40 299.59 303.45 297.00 C 303.30 292.33 304.01 287.50 302.34 283.02 C 305.48 284.33 308.88 284.28 312.07 283.13 C 310.12 289.28 311.41 295.78 310.99 302.10 C 310.98 305.18 310.06 308.57 307.39 310.40 C 303.87 312.76 299.25 312.84 295.28 311.75 C 292.42 310.96 290.07 308.59 289.40 305.69 C 287.87 298.26 290.11 290.47 287.86 283.15 Z" />
<path fill="#fbf6eb" opacity="1.00" d=" M 325.20 283.05 C 328.35 284.35 331.76 284.30 334.94 283.10 C 333.62 287.22 333.89 291.58 333.95 295.85 C 336.12 291.86 338.49 287.96 340.22 283.75 C 344.30 284.56 348.46 283.91 352.29 282.38 C 347.05 286.10 344.66 292.24 341.22 297.42 C 344.71 303.12 347.17 309.77 352.78 313.83 C 348.88 312.33 344.65 311.43 340.52 312.48 C 338.94 307.80 336.22 303.63 334.01 299.24 C 333.98 303.85 333.52 308.56 334.92 313.04 C 331.74 311.84 328.32 311.77 325.19 313.16 C 326.88 308.27 326.09 303.05 326.24 298.00 C 326.11 293.01 326.85 287.87 325.20 283.05 Z" />
<path fill="#fbf6eb" opacity="1.00" d=" M 122.09 297.09 C 127.20 298.54 132.75 298.53 137.85 297.06 C 136.83 299.61 136.85 302.32 137.88 304.86 C 132.77 303.31 127.17 303.34 122.05 304.83 C 123.10 302.31 123.09 299.62 122.09 297.09 Z" />
<path fill="#fbf6eb" opacity="1.00" d=" M 362.26 296.95 C 367.33 298.68 372.94 298.45 378.08 297.12 C 377.09 299.64 377.07 302.32 378.17 304.82 C 373.00 303.36 367.37 303.28 362.23 304.88 C 363.38 302.30 363.33 299.54 362.26 296.95 Z" />
<path fill="#fbf6eb" opacity="1.00" d=" M 90.35 328.47 C 92.81 328.06 94.94 330.12 95.58 332.35 C 96.73 336.21 96.59 340.81 94.21 344.20 C 92.57 346.59 88.65 346.22 87.09 343.93 C 85.29 341.21 85.11 337.75 85.49 334.61 C 85.85 331.94 87.38 328.83 90.35 328.47 M 89.29 330.11 C 86.45 332.02 86.41 335.96 86.66 339.03 C 86.84 341.37 88.02 344.50 90.80 344.56 C 93.00 344.77 94.08 342.49 94.51 340.69 C 95.15 337.83 95.33 334.67 94.07 331.95 C 93.28 330.17 91.09 329.01 89.29 330.11 Z" />
<path fill="#fbf6eb" opacity="1.00" d=" M 97.99 328.69 C 100.57 328.39 103.40 327.83 105.82 329.12 C 107.94 330.12 108.79 332.78 108.16 334.95 C 107.72 337.12 105.73 338.36 104.23 339.77 C 105.59 341.76 107.07 343.67 108.40 345.69 C 105.56 344.61 104.17 341.88 102.92 339.33 C 101.71 339.32 100.50 339.30 99.29 339.29 C 99.31 341.61 99.40 344.00 98.52 346.21 C 97.80 340.40 98.17 334.53 97.99 328.69 M 98.98 329.62 C 99.07 332.49 99.14 335.36 99.19 338.23 C 101.02 338.11 102.90 338.21 104.69 337.70 C 107.52 336.55 108.11 332.10 105.57 330.33 C 103.66 328.98 101.15 329.62 98.98 329.62 Z" />
<path fill="#fbf6eb" opacity="1.00" d=" M 142.16 342.14 C 142.58 337.21 141.81 331.98 143.88 327.34 C 143.92 333.59 143.45 339.85 143.08 346.10 C 139.96 341.29 137.85 335.93 135.35 330.80 C 135.28 336.04 136.11 341.38 134.96 346.55 C 133.92 340.48 134.40 334.26 134.27 328.13 C 138.25 331.87 139.42 337.55 142.16 342.14 Z" />
<path fill="#fbf6eb" opacity="1.00" d=" M 145.36 329.54 C 146.80 327.95 149.04 328.51 150.93 328.41 C 153.05 328.46 155.30 328.27 157.16 329.51 C 155.34 329.70 153.52 329.83 151.70 329.91 C 151.60 335.34 151.91 340.78 151.38 346.20 C 150.27 344.28 150.49 342.06 150.47 339.96 C 150.51 336.58 150.50 333.21 150.48 329.84 C 148.77 329.77 147.06 329.67 145.36 329.54 Z" />
<path fill="#fbf6eb" opacity="1.00" d=" M 241.16 342.14 C 241.58 337.21 240.80 331.98 242.88 327.34 C 242.92 333.60 242.45 339.86 242.08 346.10 C 238.96 341.29 236.85 335.94 234.35 330.80 C 234.16 335.98 235.31 341.35 233.84 346.41 C 233.04 340.36 233.34 334.21 233.27 328.12 C 237.24 331.87 238.42 337.55 241.16 342.14 Z" />
<path fill="#fbf6eb" opacity="1.00" d=" M 257.55 333.97 C 256.66 330.69 260.10 327.43 263.30 328.61 C 265.80 328.96 266.80 331.36 267.42 333.50 C 265.59 331.92 264.01 328.94 261.14 329.69 C 258.39 330.03 257.67 334.57 260.32 335.61 C 262.80 337.09 267.13 338.13 266.44 341.91 C 266.23 345.65 261.12 346.69 258.62 344.51 C 256.98 343.33 257.10 341.13 256.79 339.35 C 258.22 341.22 258.99 344.63 261.94 344.41 C 264.29 344.64 266.02 342.28 265.04 340.13 C 263.30 337.24 258.47 337.57 257.55 333.97 Z" />
<path fill="#fbf6eb" opacity="1.00" d=" M 295.99 328.69 C 298.57 328.39 301.40 327.83 303.82 329.13 C 305.93 330.13 306.81 332.78 306.16 334.96 C 305.71 337.12 303.73 338.36 302.23 339.77 C 303.59 341.76 305.06 343.67 306.40 345.68 C 303.55 344.61 302.17 341.88 300.92 339.33 C 299.70 339.32 298.49 339.30 297.29 339.29 C 297.31 341.61 297.39 344.00 296.53 346.21 C 295.80 340.40 296.17 334.53 295.99 328.69 M 296.98 329.62 C 297.07 332.49 297.14 335.36 297.19 338.23 C 299.02 338.11 300.90 338.21 302.69 337.70 C 305.51 336.55 306.11 332.11 303.57 330.33 C 301.66 328.98 299.15 329.62 296.98 329.62 Z" />
<path fill="#fbf6eb" opacity="1.00" d=" M 322.27 329.06 C 324.11 327.84 326.56 328.46 328.25 329.64 C 329.28 330.65 329.60 332.13 330.21 333.40 C 328.37 331.88 326.81 329.17 324.05 329.61 C 321.70 329.96 320.81 332.88 321.90 334.80 C 323.69 336.20 325.92 336.87 327.77 338.21 C 329.69 339.56 329.56 342.58 328.21 344.29 C 326.07 346.35 322.06 346.03 320.45 343.46 C 319.70 342.23 319.85 340.73 319.66 339.37 C 321.01 341.33 321.85 344.85 324.95 344.39 C 327.52 344.57 328.91 341.55 327.46 339.57 C 325.71 337.82 323.05 337.41 321.25 335.74 C 319.47 333.83 320.09 330.39 322.27 329.06 Z" />
<path fill="#fbf6eb" opacity="1.00" d=" M 330.92 329.40 C 332.17 328.72 333.52 328.27 334.97 328.41 C 337.61 328.54 340.52 327.96 342.86 329.53 C 341.06 329.73 339.27 329.83 337.47 329.90 C 337.12 335.37 338.21 341.02 336.68 346.35 C 335.92 340.89 336.38 335.36 336.26 329.87 C 334.47 329.76 332.69 329.61 330.92 329.40 Z" />
<path fill="#fbf6eb" opacity="1.00" d=" M 368.21 328.70 C 370.96 328.36 374.05 327.75 376.53 329.39 C 378.43 330.63 379.03 333.17 378.34 335.26 C 377.78 337.26 375.94 338.44 374.48 339.76 C 375.84 341.74 377.32 343.64 378.40 345.80 C 375.83 344.41 374.39 341.87 373.18 339.33 C 371.97 339.32 370.77 339.32 369.57 339.31 C 369.54 341.71 369.54 344.13 369.00 346.50 C 367.77 340.65 368.48 334.62 368.21 328.70 M 369.28 329.66 C 369.36 332.52 369.41 335.38 369.45 338.24 C 371.22 338.13 373.00 338.15 374.75 337.79 C 377.84 336.74 378.40 331.90 375.61 330.19 C 373.70 329.03 371.38 329.60 369.28 329.66 Z" />
<path fill="#fbf6eb" opacity="1.00" d=" M 401.88 327.32 C 402.48 333.55 401.59 339.86 401.23 346.09 C 398.26 341.24 396.12 335.95 393.60 330.87 C 393.64 336.01 394.06 341.17 393.42 346.28 C 392.35 343.98 392.62 341.43 392.58 338.97 C 392.63 335.28 392.18 331.57 392.74 327.89 C 396.15 332.13 397.85 337.39 400.40 342.14 C 400.66 337.19 400.40 332.11 401.88 327.32 Z" />
<path fill="#fbf6eb" opacity="1.00" d=" M 403.34 329.34 C 407.18 327.67 411.75 328.27 415.72 329.27 C 413.80 329.63 411.86 329.81 409.92 329.97 C 409.78 335.44 410.21 340.94 409.52 346.38 C 407.99 341.03 409.06 335.37 408.74 329.88 C 406.93 329.75 405.12 329.60 403.34 329.34 Z" />
<path fill="#fbf6eb" opacity="1.00" d=" M 110.32 329.16 C 113.13 328.38 116.37 327.85 119.03 329.36 C 118.06 329.49 116.13 329.75 115.16 329.88 C 115.15 334.63 115.14 339.38 115.09 344.13 C 116.01 344.37 117.85 344.85 118.77 345.09 C 115.99 345.78 113.09 345.75 110.30 345.12 C 111.23 344.87 113.09 344.38 114.01 344.14 C 114.02 339.42 114.04 334.69 114.04 329.97 C 113.11 329.77 111.25 329.37 110.32 329.16 Z" />
<path fill="#fbf6eb" opacity="1.00" d=" M 121.64 328.57 C 125.32 328.98 129.60 327.39 132.84 329.58 C 129.46 329.85 126.08 329.75 122.70 329.74 C 122.73 331.95 122.75 334.16 122.77 336.38 C 125.77 336.35 128.78 336.29 131.77 336.58 C 129.13 338.38 125.74 337.36 122.76 337.61 C 122.75 339.81 122.73 342.02 122.70 344.22 C 125.86 344.22 129.03 344.17 132.16 344.61 C 128.89 346.24 125.13 345.29 121.63 345.45 C 121.69 339.82 121.65 334.19 121.64 328.57 Z" />
<path fill="#fbf6eb" opacity="1.00" d=" M 157.92 346.32 C 158.94 340.02 161.10 333.98 162.96 327.90 C 165.06 333.93 166.94 340.09 168.03 346.40 C 166.51 344.59 165.86 342.31 165.30 340.07 C 163.72 340.06 162.13 340.08 160.55 340.09 C 159.99 342.29 159.33 344.49 157.92 346.32 M 162.97 331.66 C 162.23 334.07 161.60 336.51 161.00 338.96 C 162.33 338.96 163.67 338.96 165.01 338.97 C 164.44 336.50 163.84 334.04 162.97 331.66 Z" />
<path fill="#fbf6eb" opacity="1.00" d=" M 170.76 334.99 C 170.75 332.60 170.39 330.11 171.41 327.85 C 172.21 333.28 171.80 338.78 171.71 344.24 C 175.03 344.18 178.44 343.89 181.63 345.00 C 178.01 345.89 174.26 345.50 170.58 345.52 C 170.71 342.01 170.87 338.50 170.76 334.99 Z" />
<path fill="#fbf6eb" opacity="1.00" d=" M 197.57 331.56 C 198.76 329.04 202.15 327.51 204.64 329.13 C 206.25 330.00 206.69 331.91 207.46 333.44 C 205.75 332.11 204.58 329.41 202.06 329.69 C 199.45 329.85 197.94 332.45 197.58 334.78 C 197.18 337.32 197.27 340.09 198.53 342.40 C 199.54 344.26 201.95 344.67 203.81 343.98 C 205.39 342.71 206.09 340.70 207.24 339.10 C 206.86 340.89 206.79 343.05 205.21 344.28 C 202.87 346.43 198.50 345.60 197.38 342.55 C 195.89 339.11 195.87 334.92 197.57 331.56 Z" />
<path fill="#fbf6eb" opacity="1.00" d=" M 208.72 335.96 C 208.70 333.24 208.23 330.41 209.35 327.83 C 209.79 330.70 209.82 333.61 209.86 336.50 C 212.45 336.49 215.03 336.49 217.62 336.51 C 217.68 333.53 217.51 330.46 218.63 327.63 C 218.80 333.86 219.16 340.29 217.74 346.40 C 217.31 343.52 217.41 340.63 217.53 337.74 C 215.00 337.74 212.48 337.72 209.95 337.69 C 210.00 340.65 210.33 343.72 209.33 346.58 C 208.79 343.06 208.88 339.50 208.72 335.96 Z" />
<path fill="#fbf6eb" opacity="1.00" d=" M 221.32 329.16 C 224.13 328.39 227.37 327.84 230.02 329.37 C 229.06 329.50 227.13 329.75 226.16 329.88 C 226.15 334.63 226.14 339.38 226.09 344.13 C 227.01 344.37 228.85 344.85 229.77 345.09 C 226.99 345.78 224.09 345.75 221.30 345.12 C 222.23 344.87 224.09 344.38 225.01 344.14 C 225.02 339.42 225.04 334.70 225.04 329.98 C 224.11 329.77 222.25 329.36 221.32 329.16 Z" />
<path fill="#fbf6eb" opacity="1.00" d=" M 244.91 328.57 C 248.61 328.92 252.79 327.48 256.12 329.55 C 252.72 329.86 249.31 329.76 245.91 329.74 C 245.95 331.95 245.97 334.17 246.00 336.38 C 249.02 336.35 252.05 336.29 255.06 336.60 C 252.35 338.30 249.00 337.40 245.98 337.61 C 245.97 339.81 245.95 342.02 245.92 344.23 C 248.82 344.24 251.73 344.26 254.63 344.28 L 254.65 345.49 C 251.40 345.52 248.15 345.50 244.90 345.47 C 245.02 339.83 244.98 334.20 244.91 328.57 Z" />
<path fill="#fbf6eb" opacity="1.00" d=" M 268.90 328.57 C 272.60 328.92 276.79 327.48 280.12 329.55 C 276.72 329.86 273.31 329.76 269.91 329.74 C 269.95 331.95 269.97 334.16 269.99 336.38 C 273.03 336.35 276.09 336.28 279.12 336.64 C 276.34 338.22 273.02 337.44 269.98 337.61 C 269.97 339.81 269.95 342.02 269.92 344.23 C 272.82 344.24 275.72 344.26 278.62 344.28 L 278.66 345.49 C 275.40 345.52 272.15 345.50 268.90 345.47 C 269.03 339.84 268.98 334.20 268.90 328.57 Z" />
<path fill="#fbf6eb" opacity="1.00" d=" M 307.64 328.56 C 311.16 328.52 314.68 328.52 318.21 328.52 L 318.29 329.76 C 315.09 329.76 311.89 329.75 308.70 329.74 C 308.73 331.95 308.75 334.16 308.77 336.38 C 311.77 336.35 314.78 336.29 317.77 336.58 C 315.13 338.38 311.74 337.35 308.76 337.61 C 308.75 339.81 308.73 342.02 308.70 344.22 C 311.86 344.22 315.02 344.18 318.16 344.61 C 314.89 346.25 311.12 345.29 307.63 345.45 C 307.69 339.82 307.66 334.19 307.64 328.56 Z" />
<path fill="#fbf6eb" opacity="1.00" d=" M 343.92 346.32 C 344.94 340.02 347.10 333.98 348.96 327.90 C 351.05 333.94 352.96 340.09 354.02 346.40 C 352.51 344.58 351.85 342.29 351.28 340.05 C 349.70 340.05 348.12 340.08 346.55 340.10 C 345.98 342.29 345.33 344.50 343.92 346.32 M 348.98 331.60 C 348.23 334.02 347.61 336.49 347.00 338.96 C 348.33 338.96 349.67 338.96 351.01 338.97 C 350.43 336.48 349.83 334.00 348.98 331.60 Z" />
<path fill="#fbf6eb" opacity="1.00" d=" M 356.57 335.97 C 356.56 333.20 356.18 330.28 357.48 327.72 C 358.27 332.59 357.07 337.69 358.58 342.45 C 359.21 344.88 362.89 344.85 363.77 342.63 C 365.76 337.95 363.87 332.62 365.70 327.92 C 366.21 331.60 366.12 335.34 365.82 339.03 C 365.60 341.06 365.30 343.37 363.61 344.75 C 361.78 346.25 358.59 345.69 357.69 343.40 C 356.71 341.05 356.70 338.46 356.57 335.97 Z" />
<path fill="#fbf6eb" opacity="1.00" d=" M 385.14 327.93 C 387.32 333.99 389.39 340.19 390.14 346.61 C 388.86 344.60 388.14 342.33 387.52 340.06 C 385.95 340.04 384.39 340.03 382.84 340.03 C 382.32 342.21 381.67 344.41 380.12 346.11 C 381.32 339.93 383.36 333.96 385.14 327.93 M 383.25 338.95 C 384.59 338.94 385.93 338.94 387.27 338.94 C 386.62 336.29 385.96 333.64 385.25 331.01 C 384.57 333.65 383.91 336.30 383.25 338.95 Z" />
</g>
</svg>
